# xmcd
#
# Track frame offsets:
#	150
#	16721
#	32265
#	49207
#	64091
#	76011
#	94961
#	108793
#	126090
#	143714
#	160690
#	179965
#	194909
#	210730
#	227895
#	241325
#
# Disc length: 3393 seconds
#
# Revision: 10
# Processed by: cddbd v1.5.2PL0 Copyright (c) Steve Scherf et al.
# Submitted via: audiograbber 1.83.01
#
DISCID=d60d3f10
DTITLE=Calypso - Volume 3
DYEAR=2003
DGENRE=Forró
TTITLE0=Chamo Por Você
TTITLE1=Temporal
TTITLE2=Principe Encantado
TTITLE3=Me Telefona
TTITLE4=Cheiro do Pará
TTITLE5=Esperando Por Você
TTITLE6=Só Vai Dar Eu e Você
TTITLE7=Pot-Pourri (Warilow - Te Quero - Feitiço)
TTITLE8=Love You Mon Amour
TTITLE9=Fórmula Mágica
TTITLE10=Maridos e Esposas
TTITLE11=Não Faz Sentido
TTITLE12=Zouk Love
TTITLE13=Pot-Pourri de Carimbó (Tia Mariquinha - Vai Buscar a Flor)
TTITLE14=Desfaz As Malas
TTITLE15=Conto de Fadas
EXTD=YEAR: 2003
EXTT0=
EXTT1=
EXTT2=
EXTT3=
EXTT4=
EXTT5=
EXTT6=
EXTT7=
EXTT8=
EXTT9=
EXTT10=
EXTT11=
EXTT12=
EXTT13=
EXTT14=
EXTT15=
PLAYORDER=
